<svg width="24.000000000000004" height="24.000000000000004" xmlns="http://www.w3.org/2000/svg">

 <g>
  <title>background</title>
  <rect fill="none" id="canvas_background" height="402" width="582" y="-1" x="-1"/>
 </g>
 <g>
  <title>Layer 1</title>
  <path fill="#666666" id="video" d="m20,2l-16,0c-2.2,0 -4,1.8 -4,4l0,12c0,2.2 1.8,4 4,4l16,0c2.2,0 4,-1.8 4,-4l0,-12c0,-2.2 -1.8,-4 -4,-4zm-4.4,10.8l-5.1,3.2c-0.6,0.5 -1.5,0 -1.5,-0.8l0,-6.4c0,-0.8 0.9,-1.3 1.5,-0.8l5.1,3.2c0.7,0.3 0.7,1.3 0,1.6z"/>
 </g>
</svg>