<svg width="24" height="24" xmlns="http://www.w3.org/2000/svg">

 <g>
  <title>background</title>
  <rect fill="none" id="canvas_background" height="402" width="582" y="-1" x="-1"/>
 </g>
 <g>
  <title>Layer 1</title>
  <path fill="#666666" id="svg_1" d="m5,18l-2,0c-1.1,0 -2,0.9 -2,2c0,1.1 0.9,2 2,2l2,0c1.1,0 2,-0.9 2,-2c0,-1.1 -0.9,-2 -2,-2z"/>
  <path fill="#666666" id="svg_2" d="m13,16l-2,0c-1.1,0 -2,0.9 -2,2l0,2c0,1.1 0.9,2 2,2l2,0c1.1,0 2,-0.9 2,-2l0,-2c0,-1.1 -0.9,-2 -2,-2z"/>
  <path fill="#666666" id="svg_3" d="m21,12l-2,0c-1.1,0 -2,0.9 -2,2l0,6c0,1.1 0.9,2 2,2l2,0c1.1,0 2,-0.9 2,-2l0,-6c0,-1.1 -0.9,-2 -2,-2z"/>
  <path fill="#666666" id="svg_4" d="m22,2l-6.6,0c-0.9,0 -1.3,1.1 -0.7,1.7l1.9,1.9c-3.7,4.2 -9,7.4 -14.6,7.4c-0.6,0 -1,0.4 -1,1c0,0.6 0.4,1 1,1c6.7,0 12.9,-1.9 17.4,-6.6l1.8,1.8c0.6,0.6 1.7,0.2 1.7,-0.7l0,-6.5c0.1,-0.6 -0.3,-1 -0.9,-1z"/>
 </g>
</svg>