<svg width="24" height="24" xmlns="http://www.w3.org/2000/svg">

 <g>
  <title>background</title>
  <rect fill="none" id="canvas_background" height="402" width="582" y="-1" x="-1"/>
 </g>
 <g>
  <title>Layer 1</title>
  <path fill="#666666" id="pic" d="m24,6c0,-2.2 -1.8,-4 -4,-4l-16,0c-2.2,0 -4,1.8 -4,4l0,12c0,2.2 1.8,4 4,4l16,0c2.2,0 4,-1.8 4,-4l0,-12zm-18,0c1.1,0 2,0.9 2,2c0,1.1 -0.9,2 -2,2s-2,-0.9 -2,-2c0,-1.1 0.9,-2 2,-2zm16,12c0,1.1 -0.9,2 -2,2l-15.6,0c-0.9,0 -1.3,-1.1 -0.7,-1.7l3.6,-3.6c0.4,-0.4 1,-0.4 1.4,0l0.6,0.6c0.4,0.4 1,0.4 1.4,0l6.6,-6.6c0.4,-0.4 1,-0.4 1.4,0l3,3c0.2,0.2 0.3,0.4 0.3,0.7l0,5.6z"/>
 </g>
</svg>