<svg width="24" height="24" xmlns="http://www.w3.org/2000/svg">

 <g>
  <title>background</title>
  <rect fill="none" id="canvas_background" height="402" width="582" y="-1" x="-1"/>
 </g>
 <g>
  <title>Layer 1</title>
  <path fill="#666666" id="svg_1" d="m5,11l14,0c2.2,0 4,-1.8 4,-4c0,-2.2 -1.8,-4 -4,-4l-14,0c-2.2,0 -4,1.8 -4,4c0,2.2 1.8,4 4,4zm0,-6c1.1,0 2,0.9 2,2c0,1.1 -0.9,2 -2,2s-2,-0.9 -2,-2c0,-1.1 0.9,-2 2,-2z"/>
  <path fill="#666666" id="svg_2" d="m19,13l-14,0c-2.2,0 -4,1.8 -4,4c0,2.2 1.8,4 4,4l14,0c2.2,0 4,-1.8 4,-4c0,-2.2 -1.8,-4 -4,-4zm0,6c-1.1,0 -2,-0.9 -2,-2c0,-1.1 0.9,-2 2,-2s2,0.9 2,2c0,1.1 -0.9,2 -2,2z"/>
 </g>
</svg>