<svg width="24" height="24" xmlns="http://www.w3.org/2000/svg">

 <g>
  <title>background</title>
  <rect fill="none" id="canvas_background" height="402" width="582" y="-1" x="-1"/>
 </g>
 <g>
  <title>Layer 1</title>
  <path fill="#666666" id="svg_2" d="m21,15.9l-5.7,-1.7c0,0 -0.2,0 -0.4,0c-0.4,0 -0.7,0.1 -1,0.4c-0.5,0.5 -0.4,1.3 -0.1,1.7l3.1,4.8c0.1,0.1 0.7,0.8 1.3,0.8c0.6,0 1.1,-0.4 1.2,-0.4c0,0 0.1,-0.1 0.1,-0.1l2.4,-3.3c0,-0.1 0.3,-0.5 0.3,-1c0,-0.8 -0.8,-1.1 -1.2,-1.2z"/>
  <path fill="#666666" id="svg_3" d="m14.8,13.3c0.2,0 0.3,0 0.4,0l5.7,-1.6c0.2,-0.1 1,-0.4 1.2,-1c0.2,-0.6 -0.1,-1.1 -0.2,-1.2c0,0 0,-0.1 -0.1,-0.1l-2.7,-2.9c0,-0.1 -0.4,-0.6 -1.2,-0.6c-0.8,0 -1.2,0.7 -1.2,0.8l-3.2,4.8c-0.2,0.3 -0.3,0.9 0,1.4c0.3,0.2 0.7,0.4 1.3,0.4z"/>
  <path fill="#666666" id="svg_4" d="m11.9,0.8c-0.6,-0.3 -1.1,-0.3 -1.4,-0.2l-4.9,1.6c-0.1,0 -0.6,0.2 -1,0.7c-0.5,0.8 0.4,1.8 0.4,1.8l5,6.3c0.1,0.1 0.5,0.5 1.2,0.5c0.1,0 0.2,0 0.3,0c0.8,-0.2 1.1,-1 1.2,-1.5l0,-7.6c-0.1,-0.3 -0.2,-1.3 -0.8,-1.6z"/>
  <path fill="#666666" id="svg_5" d="m9.6,15.1c0.1,0 0.2,-0.1 0.2,-0.1c0.3,-0.1 0.8,-0.4 0.8,-1.3c0,-0.9 -0.9,-1.3 -1,-1.4l-5.1,-2.4c-0.1,0 -1.1,-0.3 -1.5,-0.1c-0.3,0.2 -0.8,0.6 -0.8,1.1l-0.3,3.8c0,0.2 0,0.8 0.2,1.2c0.1,0.2 0.4,0.5 0.9,0.5c0.4,0 0.7,-0.1 0.7,-0.1l0,0l5.9,-1.2z"/>
  <path fill="#666666" id="svg_6" d="m11.8,15.3c-0.2,-0.1 -0.3,-0.1 -0.5,-0.1c-0.6,0 -1.1,0.4 -1.2,0.5l-4,4.1c-0.1,0.2 -0.6,0.9 -0.4,1.5c0.2,0.5 0.4,0.8 0.9,1l4,1.2c0,0 0.2,0 0.5,0c0.2,0 0.4,0 0.5,-0.1c0.6,-0.2 0.8,-0.9 0.8,-1.4l0.1,-5.6c0.1,-0.2 -0.1,-0.8 -0.7,-1.1z"/>
 </g>
</svg>