<svg width="512" height="512" xmlns="http://www.w3.org/2000/svg">

 <g>
  <title>background</title>
  <rect fill="none" id="canvas_background" height="402" width="582" y="-1" x="-1"/>
 </g>
 <g>
  <title>Layer 1</title>
  <path fill="#141414" id="svg_3" d="m433.018,482l-354.035,0c-27.053,0 -48.983,-21.932 -48.983,-48.983l0,-354.034c0,-27.053 21.93,-48.983 48.983,-48.983l354.035,0c27.051,0 48.982,21.93 48.982,48.983l0,354.033c0,27.052 -21.931,48.984 -48.982,48.984z"/>
  <path id="svg_4" fill="#FFFFFF" d="m184.98,220.154c-0.009,-19.43 -12.316,-48.812 -48.905,-48.812l-48.914,0l0,170.82l47.905,0c37.938,0.063 49.926,-29.364 49.926,-48.783l-0.012,-73.225zm-29.153,73.033c0,5.998 -2.005,10.488 -6.009,13.482c-4.004,2.992 -8.022,4.489 -12.028,4.489l-18.016,0l0,-107.853l18.005,0c4.006,0 8.023,1.497 12.029,4.491c3.996,2.993 6.007,7.495 6.019,13.481l0,71.91z"/>
  <path id="svg_5" fill="#FFFFFF" d="m288.932,201.849l-55.005,0l0,39.665l33.624,0l0,30.527l-33.624,0l0,39.652l55.017,0l0,30.531l-64.196,0c-11.52,0.296 -21.101,-8.809 -21.389,-20.329l0,-129.162c-0.28,-11.511 8.836,-21.071 20.347,-21.358l65.238,0l-0.012,30.474l0,0z"/>
  <path id="svg_6" fill="#FFFFFF" d="m395.928,320.875c-13.628,31.745 -38.043,25.427 -48.978,0l-39.776,-149.491l33.625,0l30.674,117.404l30.527,-117.404l33.634,0l-39.706,149.491l0,0z"/>
 </g>
</svg>