<svg width="23.999999999999996" height="23.999999999999996" xmlns="http://www.w3.org/2000/svg">

 <g>
  <title>background</title>
  <rect fill="none" id="canvas_background" height="402" width="582" y="-1" x="-1"/>
 </g>
 <g>
  <title>Layer 1</title>
  <path fill="#666666" id="svg_2" d="m21,2.8l-18,0c-1.4,0 -2.5,1.1 -2.5,2.5l0,10c0,1.4 1.1,2.5 2.5,2.5l2,0l0,3c0,0.2 0.1,0.4 0.3,0.4c0.1,0 0.1,0 0.2,0c0.1,0 0.3,-0.1 0.4,-0.2l2.9,-3.3l12.2,0c1.4,0 2.5,-1.1 2.5,-2.5l0,-10c0,-1.3 -1.1,-2.4 -2.5,-2.4zm-14.1,7.4c-0.7,0 -1.2,-0.5 -1.2,-1.2c0,-0.7 0.5,-1.2 1.2,-1.2s1.2,0.5 1.2,1.2c0,0.6 -0.5,1.2 -1.2,1.2zm5.5,3.3c-0.1,0 -0.2,0 -0.3,0c-1,0 -1.8,-0.7 -1.9,-1.7c0,-0.1 0,-0.3 0.1,-0.4c0.1,-0.1 0.2,-0.2 0.3,-0.2l2.9,-0.4c0.1,0 0.3,0 0.4,0.1c0.1,0.1 0.2,0.2 0.2,0.3c0.1,1.2 -0.6,2.2 -1.7,2.3zm4.7,-3.3c-0.7,0 -1.2,-0.5 -1.2,-1.2c0,-0.7 0.5,-1.2 1.2,-1.2s1.2,0.5 1.2,1.2c0,0.6 -0.6,1.2 -1.2,1.2z"/>
 </g>
</svg>