<svg width="512" height="512" xmlns="http://www.w3.org/2000/svg">

 <g>
  <title>background</title>
  <rect fill="none" id="canvas_background" height="402" width="582" y="-1" x="-1"/>
 </g>
 <g>
  <title>Layer 1</title>
  <path fill="#0077b5" id="svg_2" d="m149.339,207.013c-3.984,-2.978 -7.979,-4.467 -11.964,-4.467l-17.907,0l0,107.268l17.918,0c3.984,0 7.979,-1.489 11.963,-4.465c3.982,-2.978 5.977,-7.444 5.977,-13.409l0,-71.518c-0.013,-5.955 -2.013,-10.433 -5.987,-13.409zm291.586,-181.012l-369.849,0c-24.847,0 -45.014,20.115 -45.074,44.974l0,370.05c0.061,24.86 20.228,44.975 45.074,44.975l369.849,0c24.856,0 45.013,-20.114 45.073,-44.975l0,-370.05c-0.06,-24.859 -20.227,-44.974 -45.073,-44.974zm-256.593,266.13c0,19.314 -11.922,48.579 -49.655,48.518l-47.645,0l0,-169.892l48.648,0c36.39,0 48.63,29.222 48.64,48.546l0.012,72.828l0,0zm103.375,-91.032l-54.706,0l0,39.448l33.44,0l0,30.361l-33.44,0l0,39.438l54.718,0l0,30.363l-63.847,0c-11.458,0.296 -20.987,-8.759 -21.274,-20.218l0,-128.46c-0.278,-11.448 8.789,-20.956 20.237,-21.242l64.884,0l-0.012,30.31l0,0zm106.415,118.378c-13.554,31.574 -37.836,25.289 -48.711,0l-39.561,-148.679l33.442,0l30.506,116.767l30.363,-116.767l33.45,0l-39.489,148.679l0,0z"/>
 </g>
</svg>