<svg width="24" height="24" xmlns="http://www.w3.org/2000/svg">

 <g>
  <title>background</title>
  <rect fill="none" id="canvas_background" height="402" width="582" y="-1" x="-1"/>
 </g>
 <g>
  <title>Layer 1</title>
  <path fill="#666666" id="svg_2" d="m16,14.6c2.9,0 5.1,-2.2 5.2,-2.2c0.1,-0.1 0.2,-0.4 0.1,-0.6c0,-0.1 -0.7,-1.4 -1.6,-2.8c-0.1,-0.1 -0.2,-0.2 -0.3,-0.2c-0.1,0 -0.3,0 -0.4,0.1c-0.7,0.6 -1.5,1 -2.4,1c-0.4,0 -0.7,-0.1 -0.9,-0.1c-0.6,-0.1 -0.7,-0.3 -0.7,-0.3c0,-0.2 -0.1,-0.5 -0.4,-0.6c-0.2,-0.1 -0.6,-0.3 -1.1,-0.5c-0.7,-0.4 -1.6,-0.8 -2.3,-1c-0.1,0 -0.3,0 -0.4,0c-2,1.2 -3.1,4.2 -3,7.9c-1.3,2.5 -2.3,3.2 -4.8,3.8c-0.1,0 -0.3,0.1 -0.3,0.2c-0.1,0.1 -0.1,0.3 0,0.4c0.5,1.3 0.8,1.7 1.5,3.4c0.1,0.2 0.3,0.3 0.6,0.3c2.9,-0.8 5.3,-2.4 7.2,-4.7c2.1,0.6 3.6,2 4.9,4.5c0.1,0.1 0.2,0.2 0.3,0.2c0,0 0.1,0 0.1,0c0.1,0 0.2,0 0.3,-0.1c1.4,-1.1 1.6,-1.3 2.6,-2.1l0.3,-0.2c0.2,-0.1 0.2,-0.4 0.1,-0.6c-1.1,-2.6 -3.5,-4.5 -5.6,-5.6c0,-0.1 0,-0.2 0,-0.3c0.4,0.1 0.7,0.1 1,0.1z"/>
  <path fill="#666666" id="svg_3" d="m15,7.7c2,0 3.6,-1.6 3.6,-3.6s-1.6,-3.6 -3.6,-3.6c-2,0 -3.6,1.6 -3.6,3.6s1.6,3.6 3.6,3.6z"/>
 </g>
</svg>