<svg width="24" height="24" xmlns="http://www.w3.org/2000/svg">

 <g>
  <title>background</title>
  <rect fill="none" id="canvas_background" height="402" width="582" y="-1" x="-1"/>
 </g>
 <g>
  <title>Layer 1</title>
  <path fill="#666666" id="svg_2" d="m22.7,0.7c-0.1,-0.1 -0.2,-0.2 -0.4,-0.2l-5.1,0c-0.2,0 -0.3,0.1 -0.4,0.2l-7.6,13.4c-0.1,0.1 -0.1,0.3 0,0.5l4.9,8.6c0.1,0.2 0.2,0.2 0.4,0.2l5.1,0c0.2,0 0.3,-0.1 0.4,-0.2c0.1,-0.1 0.1,-0.3 0,-0.5l-4.7,-8.4l7.4,-13.2c0.1,0 0.1,-0.2 0,-0.4z"/>
  <path fill="#666666" id="svg_3" d="m10.7,9.8l-2.8,-5c-0.1,-0.2 -0.3,-0.3 -0.4,-0.3l-4.8,0c-0.2,0 -0.3,0.1 -0.4,0.2c-0.1,0.1 -0.1,0.3 0,0.5l2.7,4.8l-3.6,6.1c-0.1,0.1 -0.1,0.3 0,0.5c0.1,0.2 0.2,0.2 0.4,0.2l4.8,0c0.2,0 0.3,-0.1 0.4,-0.2l3.8,-6.3c0,-0.1 0,-0.3 -0.1,-0.5z"/>
 </g>
</svg>