<svg width="24.000000000000004" height="24.000000000000004" xmlns="http://www.w3.org/2000/svg">

 <g>
  <title>background</title>
  <rect fill="none" id="canvas_background" height="402" width="582" y="-1" x="-1"/>
 </g>
 <g>
  <title>Layer 1</title>
  <path fill="#666666" id="svg_1" d="m2.8,16.4c0,-0.1 -0.1,-0.1 -0.1,-0.2c-0.1,-0.1 -0.2,-0.3 -0.3,-0.4s-0.2,-0.3 -0.4,-0.3c-0.3,-0.1 -0.4,-0.2 -0.4,-0.2c0,0 -0.1,-0.1 -0.2,-0.1c0,0 -0.3,-0.2 -0.3,-0.8c0.4,-3.3 3.2,-4.5 3.6,-4.6c0.2,-0.1 0.3,-0.2 0.3,-0.4c0,-0.2 0,-0.4 -0.2,-0.5c-0.6,-0.5 -1,-1.2 -1,-2.1c0,-1.5 1.3,-2.7 2.8,-2.7c0.9,0 1.8,0.4 2.3,1.2c0,0.4 0,0.7 0,1.1c0,0.3 0,0.6 0.1,0.9c0,0.2 0.1,0.3 0.1,0.5c0,0.1 0,0.2 0.1,0.3c-0.2,0.3 -0.4,0.6 -0.7,0.8c-0.1,0.1 -0.2,0.3 -0.2,0.5c0,0.2 0.2,0.3 0.3,0.4c0.3,0.1 0.7,0.3 1,0.4c-1.6,1 -4,3 -4.6,6.8c-1.7,-0.2 -2.2,-0.6 -2.2,-0.6c0,0 0,0 0,0zm19.7,2.4c-0.2,0.4 -0.6,0.6 -1,0.7c-0.2,0 -0.3,0.2 -0.4,0.3c-0.1,0.2 -0.1,0.3 -0.2,0.5c0,0 0,0 0,0.1c0,0 -0.6,1.1 -4.7,1.4l-3,0.1l-0.1,0c0,0 -0.1,0 -0.2,0c-3.7,-0.2 -4.4,-1 -4.5,-1.1c0,-0.1 -0.1,-0.1 -0.1,-0.1c-0.2,-0.2 -0.4,-0.4 -0.5,-0.7c-0.1,-0.2 -0.2,-0.3 -0.4,-0.3c-0.5,-0.1 -0.8,-0.4 -0.8,-0.4c0,0 -0.1,-0.1 -0.2,-0.1c0,0 -0.6,-0.3 -0.6,-1.4c0.6,-5.1 5,-6.8 5.5,-7c0.2,-0.1 0.3,-0.2 0.3,-0.4s0,-0.4 -0.2,-0.5c-0.7,-0.5 -1.2,-1.3 -1.4,-2.1c0,-0.1 -0.1,-0.3 -0.1,-0.4c0,-0.4 0,-0.7 0,-1c0,-0.2 0,-0.4 0.1,-0.6c0,-0.1 0,-0.3 0.1,-0.4c0,0 0,0 0,0c0.5,-1.8 2.2,-3.2 4.3,-3.2c2.5,0 4.5,1.9 4.5,4.2c0,1.3 -0.6,2.5 -1.6,3.3c-0.3,0.1 -0.3,0.3 -0.3,0.5s0.2,0.3 0.3,0.4c2.5,0.8 4.4,2.7 5.1,4.9c0.5,1.3 0.5,2.6 0.1,3.3z"/>
 </g>
</svg>