<svg width="23.999999999999996" height="23.999999999999996" xmlns="http://www.w3.org/2000/svg">

 <g>
  <title>background</title>
  <rect fill="none" id="canvas_background" height="402" width="582" y="-1" x="-1"/>
 </g>
 <g>
  <title>Layer 1</title>
  <path fill="#666666" id="svg_1" d="m12,1.1c6,0 10.9,4.9 10.9,10.9c0,2 -0.5,3.8 -1.5,5.4c-1.2,-0.1 -2.4,-0.5 -3.3,-1.4c-1,-0.9 -1.5,-2.2 -1.5,-3.5l0,0c0,-1.6 -0.6,-3.1 -1.8,-4.2c-1.1,-1.1 -2.6,-1.7 -4.2,-1.7c0,0 0,0 0,0c0,0 0,0 0,0l0,0c-0.3,-0.1 -0.6,0.1 -0.6,0.4c0,2.3 -0.9,4.4 -2.5,6c-1.6,1.6 -3.6,2.5 -5.9,2.5c-0.4,-1.1 -0.6,-2.3 -0.6,-3.5c0.1,-6 5,-10.9 11,-10.9zm0,21.8c-4.4,0 -8.2,-2.6 -9.9,-6.4c2.3,-0.1 4.5,-1.1 6.2,-2.8c1.7,-1.7 2.6,-3.8 2.7,-6.2c2.5,0.2 4.6,2.3 4.6,5l0,0c0,1.6 0.6,3.1 1.8,4.2c0.9,0.9 2.1,1.5 3.4,1.7c-2,2.7 -5.2,4.5 -8.8,4.5z"/>
 </g>
</svg>