<svg width="32" height="32" xmlns="http://www.w3.org/2000/svg">

 <g>
  <title>background</title>
  <rect fill="none" id="canvas_background" height="402" width="582" y="-1" x="-1"/>
 </g>
 <g>
  <title>Layer 1</title>
  <rect id="svg_1" width="32" height="32" fill="none"/>
  <path fill="#161616" id="svg_2" d="m28,8l-4,0l-4,-4l-8.001,0l-3.999,4l-4,0c0,0 -4,0 -4,4l0,12c0,4 4,4 4,4s5.662,0 11.518,0c1.614,2.411 4.361,3.999 7.482,4c3.875,-0.002 7.167,-2.454 8.436,-5.888c0.559,-1.036 0.564,-2.112 0.564,-2.112s0,-8 0,-12s-4,-4 -4,-4zm-13.967,15.66c-2.347,-0.813 -4.033,-3.034 -4.033,-5.66c0,-3.312 2.684,-6 6,-6c1.914,0 3.607,0.908 4.706,2.306c-3.858,1.015 -6.706,4.516 -6.706,8.694c0,0.223 0.018,0.441 0.033,0.66zm8.967,6.223c-3.801,-0.009 -6.876,-3.084 -6.885,-6.883c0.009,-3.801 3.084,-6.876 6.885,-6.885c3.799,0.009 6.874,3.084 6.883,6.885c-0.009,3.799 -3.084,6.874 -6.883,6.883z"/>
  <polygon fill="#666666" id="svg_4" points="28,22 24.002,22 24.002,18 22,18 22,22 18,22 18,24 22,24 22,28 24.002,28 24.002,24 28,24   "/>
 </g>
</svg>