<svg width="24.000000000000004" height="24.000000000000004" xmlns="http://www.w3.org/2000/svg">

 <g>
  <title>background</title>
  <rect fill="none" id="canvas_background" height="402" width="582" y="-1" x="-1"/>
 </g>
 <g>
  <title>Layer 1</title>
  <path fill="#05b91d" id="svg_1" d="m12,0.5c-6.3,0 -11.5,5.2 -11.5,11.5c0,6.3 5.2,11.5 11.5,11.5c6.3,0 11.5,-5.2 11.5,-11.5c0,-6.3 -5.2,-11.5 -11.5,-11.5zm5,15.9c-0.1,0.2 -0.3,0.2 -0.4,0.2c-0.1,0 -0.2,0 -0.3,-0.1c-2.4,-1.5 -5.6,-1.8 -9.3,-1c-0.3,0.1 -0.5,-0.1 -0.6,-0.4c-0.1,-0.3 0.1,-0.5 0.4,-0.6c4,-0.9 7.4,-0.5 10.1,1.1c0.2,0.2 0.2,0.5 0.1,0.8zm1.1,-3c-0.1,0.2 -0.3,0.2 -0.4,0.2c-0.1,0 -0.2,0 -0.3,-0.1c-2.9,-1.8 -7.2,-2.3 -10.6,-1.2c-0.3,0.1 -0.5,-0.1 -0.6,-0.3c-0.1,-0.3 0.1,-0.5 0.3,-0.6c3.6,-1.1 8.2,-0.6 11.4,1.3c0.3,0.2 0.3,0.5 0.2,0.7zm1.3,-3.4c-0.1,0.2 -0.3,0.2 -0.4,0.2c-0.1,0 -0.2,0 -0.2,-0.1c-3.5,-1.9 -9.2,-2.1 -12.5,-1.1c-0.2,0.1 -0.5,-0.1 -0.6,-0.3c-0.1,-0.3 0.1,-0.6 0.3,-0.7c3.5,-1 9.5,-0.8 13.2,1.4c0.2,0.1 0.3,0.4 0.2,0.6z"/>
 </g>
</svg>