<svg width="24" height="24" xmlns="http://www.w3.org/2000/svg">

 <g>
  <title>background</title>
  <rect fill="none" id="canvas_background" height="402" width="582" y="-1" x="-1"/>
 </g>
 <g>
  <title>Layer 1</title>
  <path fill="#666666" id="svg_1" d="m9.4,13.3c-0.3,0 -0.5,0.2 -0.5,0.5l0,9.2l-5,0l0,-9.1c0,-0.3 -0.2,-0.5 -0.5,-0.5l-1.4,0l4.4,-4.4l4.4,4.4l-1.4,0l0,-0.1zm2.6,1c0.2,0 0.4,-0.1 0.5,-0.3c0.1,-0.2 0,-0.4 -0.1,-0.5l-0.5,-0.5l0,-7.1c0,-0.3 -0.2,-0.5 -0.5,-0.5l-1.4,0l4.4,-4.4l4.4,4.4l-1.4,0c-0.3,0 -0.5,0.2 -0.5,0.5l0,6.9l-5,5l0,-3.4l0.1,0l0,-0.1zm-0.1,4.6c0,0 0.1,0 0.1,0l2.1,0l0,4.1l-2.2,0l0,-4.1zm8.7,-1c-0.3,0 -0.5,0.2 -0.5,0.5l0,4.6l-5,0l0,-4.6c0,-0.3 -0.2,-0.5 -0.5,-0.5l-1.4,0l4.4,-4.4l4.4,4.4l-1.4,0z"/>
 </g>
</svg>